#format: frame checksums
#version: 2
#hash: MD5
#software: Lavf62.3.100
#tb 0: 1/2
#media_type 0: video
#codec_id 0: rawvideo
#dimensions 0: 180x320
#sar 0: 1/1
#stream#, dts,        pts, duration,     size, hash
0,          0,          0,        1,    86400, 2917fc4296991f64fb2ae2a13d65d0c8
0,          1,          1,        1,    86400, fc63e77ead3729bf459a4eb6bc04cb62
0,          2,          2,        1,    86400, 78e2172893b1a350c5ba74edd96ec0b5
0,          3,          3,        1,    86400, 93bb43ca0d4a7ba4fc19970ae33ae0f1
0,          4,          4,        1,    86400, 55522c084d3bd8762633d160e0453bbd
0,          5,          5,        1,    86400, defda95a11ade973bd98dc7f630e1ed9
0,          6,          6,        1,    86400, a413d82e60f695707baba18506761f59
0,          7,          7,        1,    86400, 98637bcac337076a598df9ef3997a3aa
0,          8,          8,        1,    86400, 5bd47ec58c750e832404a9af5efbb320
0,          9,          9,        1,    86400, 3306bbbaa9d52f3909fbde7d1aa30a38
0,         10,         10,        1,    86400, 6d6e2675eb13eb3db5f767ca8a07f5c0
0,         11,         11,        1,    86400, ada744e85962ae71e6c68ddf36a6ff74
0,         12,         12,        1,    86400, 4a0868de21c669338070a9f0ab0bfe8f
0,         13,         13,        1,    86400, 6b56f283824b0b6d95e63b82400053eb
0,         14,         14,        1,    86400, e00b7e335b998c44c65aceffe6872e85
0,         15,         15,        1,    86400, 878994cb0369023467f876470a00aab2
0,         16,         16,        1,    86400, 96f5bb180083c68ee33c0a19b80b5402
0,         17,         17,        1,    86400, 377f48f2c095a7a3fb9edd114a69b769
